<svg width="19" height="24" viewBox="0 0 19 24" fill="none" xmlns="http://www.w3.org/2000/svg">
<path fill-rule="evenodd" clip-rule="evenodd" d="M10.8275 21.1144C9.19444 21.1144 7.59098 20.5206 6.67052 19.2437L6.34581 20.7496L0.351562 23.934L0.998669 20.7496L5.364 0.952744H10.7088L9.16474 7.93064C10.4118 6.56477 11.5699 6.05996 13.0545 6.05996C16.2614 6.05996 18.3993 8.16816 18.3993 12.0283C18.3993 16.0072 15.9348 21.1144 10.8275 21.1144ZM12.8764 13.1567C12.8764 14.9976 11.5699 16.3932 9.87737 16.3932C8.92716 16.3932 8.06609 16.0369 7.50189 15.4133L8.33332 11.7611C8.95686 11.1375 9.66949 10.7812 10.5009 10.7812C11.7777 10.7812 12.8764 11.7314 12.8764 13.1567Z" fill="black"/>
</svg>
